<svg width="906" height="287" xmlns="http://www.w3.org/2000/svg" xmlns:xlink="http://www.w3.org/1999/xlink" overflow="hidden"><defs><clipPath id="clip0"><path d="M35 239 941 239 941 526 35 526Z" fill-rule="evenodd" clip-rule="evenodd"/></clipPath></defs><g clip-path="url(#clip0)" transform="translate(-35 -239)"><rect x="301.5" y="241.5" width="128" height="43" stroke="#FF0000" stroke-width="2.66667" stroke-miterlimit="8" fill="#FFFFFF"/><rect x="434.5" y="241.5" width="241" height="43" stroke="#5B9BD5" stroke-width="2.66667" stroke-miterlimit="8" fill="#FFFFFF"/><rect x="67.5001" y="241.5" width="230" height="43" stroke="#5B9BD5" stroke-width="2.66667" stroke-miterlimit="8" fill="#FFFFFF"/><text font-family="Calibri,Calibri_MSFontService,sans-serif" font-weight="400" font-size="24" transform="translate(50.4553 272)">A<tspan x="19.3333" y="0">software requirements </tspan><tspan x="253.407" y="0">specification</tspan><tspan x="386.987" y="0">document </tspan><tspan x="492.267" y="0">encompasses all the </tspan><tspan x="694.567" y="0">necessary</tspan><tspan x="0" y="58">requirements for </tspan>project development.<tspan x="48.4099" y="167">: Context words (window =2)</tspan><tspan x="13.7143" y="203">CBOW model</tspan>: The inputs are the context words, while the output is the <tspan x="715.961" y="203">center </tspan><tspan x="784.148" y="203">word .</tspan><tspan x="13.7143" y="232">Skip</tspan>-<tspan x="61.0477" y="232">gram model: </tspan>The input is the center word, while the outputs are the context words.</text><rect x="67.5001" y="375.5" width="29" height="29" stroke="#FF0000" stroke-width="2.66667" stroke-miterlimit="8" fill="#FFFFFF"/><rect x="67.5001" y="418.5" width="29" height="28" stroke="#5B9BD5" stroke-width="2.66667" stroke-miterlimit="8" fill="#FFFFFF"/><text font-family="Calibri,Calibri_MSFontService,sans-serif" font-weight="400" font-size="24" transform="translate(100.661 395)">: Center word</text></g></svg>